<svg width="2800" height="8109" viewBox="0 0 2800 8109" fill="none" xmlns="http://www.w3.org/2000/svg">
<g clip-path="url(#clip0_104_507)">
<g filter="url(#filter0_f_104_507)">
<path d="M1394.75 5034.41C1320.89 5034.8 1318.91 5132.6 1403.85 5184.47C1556.48 5277.68 1722.01 5265.9 1886.54 5334.73C1920.43 5348.9 1888.44 5375.09 1912.79 5397.38C1935.22 5417.91 1975.24 5424.12 2003.85 5442.13C2058.54 5476.54 2098.28 5519.71 2156.11 5550.48C2249.86 5600.36 2363.39 5674.96 2442.1 5675.3C2508.23 5675.59 2432.76 5583.52 2458.26 5551.78C2489.33 5513.13 2693.86 5530.95 2605.37 5472.16C2452.54 5370.63 2220.03 5429.59 2103.68 5316.23C1990.58 5206.01 2275.41 5213.94 2234.58 5110.84C2210.57 5050.2 2053.12 4973.41 1959.85 4953C1859.13 4930.96 1791.95 4963.98 1763.28 5007.7C1736.4 5048.68 1884.62 5176.86 1809.46 5182.31C1703.08 5190.02 1507.77 5033.8 1394.75 5034.41Z" fill="url(#paint0_linear_104_507)" fill-opacity="0.15"/>
</g>
<g filter="url(#filter1_f_104_507)">
<path d="M1846.96 8314.17C1792.72 8363.96 1851.52 8415.03 1781.97 8457.9C1624.41 8555 1396.62 8553.92 1274.67 8666.89C1189.59 8745.71 1384.52 8741.28 1425.03 8788.56C1459.76 8829.11 1410.53 8926.95 1496.45 8925.79C1595.31 8924.46 1738.12 8850.39 1845.9 8782.89C1939.4 8724.33 1946.87 8630.06 2047.3 8580.82C2120.52 8544.92 2136.76 8617.86 2206.78 8605.97C2288.11 8592.16 2455.53 8561.17 2463.89 8510.06C2476 8436.03 2178.14 8516.86 2235.04 8433.19C2312.74 8318.94 2672.06 8257.91 2707.92 8151.21C2737.99 8061.76 2331.23 8325.48 2193 8355.36C2147.27 8365.25 2131.95 8339.07 2103.25 8328.8C2054.78 8311.46 2129.42 8196.07 2055.03 8207.18C1988.08 8217.18 1898.76 8266.6 1846.96 8314.17Z" fill="url(#paint1_linear_104_507)" fill-opacity="0.13"/>
</g>
<g filter="url(#filter2_f_104_507)">
<path d="M768.937 7072.92C713.326 7117.67 765.527 7161.95 695.827 7200.8C537.944 7288.79 320.558 7291.03 195.444 7392.53C108.147 7463.35 294.588 7456.7 329.614 7497.9C359.654 7533.23 305.121 7620.35 387.229 7618.12C481.714 7615.56 623.746 7548.12 731.838 7486.98C825.613 7433.94 839.995 7350.56 939.668 7305.65C1012.33 7272.92 1022.22 7337.12 1089.98 7325.63C1168.68 7312.29 1330.9 7282.57 1342.82 7237.31C1360.08 7171.74 1069.5 7247.32 1130.26 7172.61C1213.23 7070.6 1560.96 7011.65 1603.41 6916.89C1639 6837.45 1321.92 7016.16 1187.66 7044.5C1143.24 7053.87 1130.63 7030.96 1104.02 7022.29C1059.08 7007.65 1047.69 6964.64 975.817 6975.5C911.129 6985.27 822.057 7030.18 768.937 7072.92Z" fill="url(#paint2_linear_104_507)" fill-opacity="0.12"/>
</g>
<g filter="url(#filter3_f_104_507)">
<path d="M1333.09 863.008C1416.44 877.999 1393.47 982.531 1284.12 1021.01C1087.63 1090.15 903.643 1044.95 700.001 1085.78C658.054 1094.19 687.448 1128.38 654.192 1147.31C623.554 1164.75 576.733 1163.47 539.766 1177C469.103 1202.85 413.07 1240.98 339.799 1262.34C221.013 1296.96 73.5055 1354 -15.5195 1338.83C-90.3115 1326.09 18.7008 1242.94 -1.93342 1204.12C-27.072 1156.83 -262.763 1135.45 -147.619 1090.31C51.2303 1012.35 298.745 1121.01 459.426 1023.24C615.635 928.193 291.77 880.445 364.476 778.721C407.245 718.883 604.942 668.179 715.586 664.843C835.074 661.242 902.464 709.66 923.589 761.867C943.39 810.802 742.868 918.055 826.394 938.685C944.598 967.88 1205.55 840.07 1333.09 863.008Z" fill="url(#paint3_linear_104_507)" fill-opacity="0.25"/>
</g>
<g filter="url(#filter4_f_104_507)">
<path d="M2269.04 2060.76C2237.29 2016.53 2261.25 1960.73 2211.95 1923.93C2157.41 1883.22 2071.72 1845.78 1997.76 1858.27C1922.43 1870.99 1937.67 1957.67 1869.87 1981.68C1771.76 2016.43 1608.29 1958.67 1543.79 2019.06C1485.74 2073.41 1547.11 2164.34 1613.71 2221.52C1674.78 2273.97 1840.35 2265.87 1924.27 2300.59C2003.63 2333.41 1999.4 2424.02 2087.51 2417.5C2177.84 2410.82 2177.48 2319.05 2237.43 2275.49C2285.93 2240.26 2394.84 2238.38 2402.12 2188.92C2409.58 2138.29 2303.34 2108.55 2269.04 2060.76Z" fill="url(#paint4_linear_104_507)" fill-opacity="0.15"/>
</g>
<g filter="url(#filter5_f_104_507)">
<path d="M2038.52 -106.033C2096.68 -89.7096 2083.95 -3.12095 2148.47 -3.02516C2294.64 -2.80818 2438.21 -142.946 2569.45 -105.245C2661.02 -78.939 2535.59 35.6618 2532.62 107.327C2530.08 168.791 2608.08 235.863 2553.18 287.162C2490.01 346.194 2364.21 359.839 2263.7 358.63C2176.51 357.581 2126.63 268.548 2039.52 280.983C1976.02 290.048 2000.68 372.367 1950.7 403.309C1892.64 439.244 1771.9 510.697 1742.13 465.062C1699.01 398.961 1926.13 297.368 1850.06 249.038C1746.2 183.05 1489.69 341.829 1415.89 257.797C1354.03 187.351 1648.55 190.149 1750.3 135.432C1783.96 117.329 1781.11 81.9822 1794.34 54.2661C1816.7 7.46119 1803.29 -50.8261 1855.67 -85.2094C1902.81 -116.155 1982.97 -121.625 2038.52 -106.033Z" fill="url(#paint5_linear_104_507)" fill-opacity="0.5"/>
</g>
<g filter="url(#filter6_f_104_507)">
<path d="M768.937 4476.92C713.326 4521.67 765.527 4565.95 695.827 4604.8C537.944 4692.79 320.558 4695.03 195.444 4796.53C108.147 4867.35 294.588 4860.7 329.614 4901.9C359.654 4937.23 305.121 5024.35 387.229 5022.12C481.714 5019.56 623.746 4952.12 731.838 4890.98C825.613 4837.94 839.995 4754.56 939.668 4709.65C1012.33 4676.92 1022.22 4741.12 1089.98 4729.63C1168.68 4716.29 1330.9 4686.57 1342.82 4641.31C1360.08 4575.74 1069.5 4651.32 1130.26 4576.61C1213.23 4474.6 1560.96 4415.65 1603.41 4320.89C1639 4241.45 1321.92 4420.16 1187.66 4448.5C1143.24 4457.87 1130.63 4434.96 1104.02 4426.29C1059.08 4411.65 1047.69 4368.64 975.817 4379.5C911.129 4389.27 822.057 4434.18 768.937 4476.92Z" fill="url(#paint6_linear_104_507)" fill-opacity="0.15"/>
</g>
<g filter="url(#filter7_f_104_507)">
<path d="M835.259 3376.76C771.996 3380.37 776.449 3457.9 708.134 3446.25C553.386 3419.86 416.016 3272.03 273.159 3280.92C173.481 3287.12 294.309 3409.48 289.985 3472.27C286.276 3526.12 196.714 3570.2 249.479 3624.75C310.198 3687.51 441.949 3722.24 548.465 3739.46C640.874 3754.4 702.949 3686.13 793.865 3712.76C860.148 3732.19 825.455 3799.21 875.146 3835.17C932.855 3876.94 1053.22 3960.96 1089.49 3926.74C1142.02 3877.15 912.187 3747.61 997.752 3719.46C1114.58 3681.02 1369.56 3865.58 1456.43 3806C1529.26 3756.06 1121.79 3698.03 1019.79 3632C986.046 3610.16 992.746 3579.97 981.623 3553.49C962.84 3508.77 1078.51 3467.48 1026.65 3428.09C979.978 3392.64 895.689 3373.32 835.259 3376.76Z" fill="url(#paint7_linear_104_507)" fill-opacity="0.15"/>
</g>
</g>
<defs>
<filter id="filter0_f_104_507" x="1159.72" y="4765.97" width="1647.69" height="1089.33" filterUnits="userSpaceOnUse" color-interpolation-filters="sRGB">
<feFlood flood-opacity="0" result="BackgroundImageFix"/>
<feBlend mode="normal" in="SourceGraphic" in2="BackgroundImageFix" result="shape"/>
<feGaussianBlur stdDeviation="90" result="effect1_foregroundBlur_104_507"/>
</filter>
<filter id="filter1_f_104_507" x="1033.4" y="7912.78" width="1896.1" height="1233.02" filterUnits="userSpaceOnUse" color-interpolation-filters="sRGB">
<feFlood flood-opacity="0" result="BackgroundImageFix"/>
<feBlend mode="normal" in="SourceGraphic" in2="BackgroundImageFix" result="shape"/>
<feGaussianBlur stdDeviation="110" result="effect1_foregroundBlur_104_507"/>
</filter>
<filter id="filter2_f_104_507" x="-7.5918" y="6716.7" width="1793.77" height="1081.47" filterUnits="userSpaceOnUse" color-interpolation-filters="sRGB">
<feFlood flood-opacity="0" result="BackgroundImageFix"/>
<feBlend mode="normal" in="SourceGraphic" in2="BackgroundImageFix" result="shape"/>
<feGaussianBlur stdDeviation="90" result="effect1_foregroundBlur_104_507"/>
</filter>
<filter id="filter3_f_104_507" x="-429.119" y="414.654" width="2062.49" height="1176.69" filterUnits="userSpaceOnUse" color-interpolation-filters="sRGB">
<feFlood flood-opacity="0" result="BackgroundImageFix"/>
<feBlend mode="normal" in="SourceGraphic" in2="BackgroundImageFix" result="shape"/>
<feGaussianBlur stdDeviation="125" result="effect1_foregroundBlur_104_507"/>
</filter>
<filter id="filter4_f_104_507" x="1270.61" y="1605.83" width="1381.89" height="1062.01" filterUnits="userSpaceOnUse" color-interpolation-filters="sRGB">
<feFlood flood-opacity="0" result="BackgroundImageFix"/>
<feBlend mode="normal" in="SourceGraphic" in2="BackgroundImageFix" result="shape"/>
<feGaussianBlur stdDeviation="125" result="effect1_foregroundBlur_104_507"/>
</filter>
<filter id="filter5_f_104_507" x="1157.44" y="-364.478" width="1695.41" height="1094.3" filterUnits="userSpaceOnUse" color-interpolation-filters="sRGB">
<feFlood flood-opacity="0" result="BackgroundImageFix"/>
<feBlend mode="normal" in="SourceGraphic" in2="BackgroundImageFix" result="shape"/>
<feGaussianBlur stdDeviation="125" result="effect1_foregroundBlur_104_507"/>
</filter>
<filter id="filter6_f_104_507" x="-7.5918" y="4120.7" width="1793.77" height="1081.47" filterUnits="userSpaceOnUse" color-interpolation-filters="sRGB">
<feFlood flood-opacity="0" result="BackgroundImageFix"/>
<feBlend mode="normal" in="SourceGraphic" in2="BackgroundImageFix" result="shape"/>
<feGaussianBlur stdDeviation="90" result="effect1_foregroundBlur_104_507"/>
</filter>
<filter id="filter7_f_104_507" x="52.8789" y="3100.54" width="1592.21" height="1014.21" filterUnits="userSpaceOnUse" color-interpolation-filters="sRGB">
<feFlood flood-opacity="0" result="BackgroundImageFix"/>
<feBlend mode="normal" in="SourceGraphic" in2="BackgroundImageFix" result="shape"/>
<feGaussianBlur stdDeviation="90" result="effect1_foregroundBlur_104_507"/>
</filter>
<linearGradient id="paint0_linear_104_507" x1="2488.1" y1="5751.47" x2="1590.88" y2="5097.44" gradientUnits="userSpaceOnUse">
<stop stop-color="#FF5610"/>
<stop offset="0.197917" stop-color="#FB722C"/>
<stop offset="0.395833" stop-color="#FFEA54"/>
<stop offset="0.588542" stop-color="#00B471"/>
<stop offset="0.807292" stop-color="#1568AB"/>
<stop offset="1" stop-color="#B68DD6"/>
</linearGradient>
<linearGradient id="paint1_linear_104_507" x1="1445.5" y1="9013.66" x2="1626.57" y2="8162.92" gradientUnits="userSpaceOnUse">
<stop stop-color="#FF5610"/>
<stop offset="0.197917" stop-color="#FF7934"/>
<stop offset="0.403275" stop-color="#FFEA54"/>
<stop offset="0.514953" stop-color="#00B471"/>
<stop offset="0.705801" stop-color="#1568AB"/>
<stop offset="1" stop-color="#B68DD6"/>
</linearGradient>
<linearGradient id="paint2_linear_104_507" x1="231.146" y1="7563.99" x2="1517.11" y2="7009.47" gradientUnits="userSpaceOnUse">
<stop stop-color="#FF5610"/>
<stop offset="0.197917" stop-color="#FF7934"/>
<stop offset="0.395833" stop-color="#FFEA54"/>
<stop offset="0.588542" stop-color="#00B471"/>
<stop offset="0.807292" stop-color="#1568AB"/>
<stop offset="1" stop-color="#B68DD6"/>
</linearGradient>
<linearGradient id="paint3_linear_104_507" x1="1475.88" y1="794.758" x2="386.369" y2="727.68" gradientUnits="userSpaceOnUse">
<stop stop-color="#FF5610"/>
<stop offset="0.197917" stop-color="#FB722C"/>
<stop offset="0.395833" stop-color="#FFEA54"/>
<stop offset="0.588542" stop-color="#00B471"/>
<stop offset="0.807292" stop-color="#1568AB"/>
<stop offset="1" stop-color="#B68DD6"/>
</linearGradient>
<linearGradient id="paint4_linear_104_507" x1="1444" y1="1960.49" x2="2433.08" y2="2219.93" gradientUnits="userSpaceOnUse">
<stop stop-color="#FF5610"/>
<stop offset="0.163224" stop-color="#FB722C"/>
<stop offset="0.449665" stop-color="#FFEA54"/>
<stop offset="0.645906" stop-color="#00B471"/>
<stop offset="0.746827" stop-color="#4093D6"/>
<stop offset="1" stop-color="#B68DD6"/>
</linearGradient>
<linearGradient id="paint5_linear_104_507" x1="2471.5" y1="-75.4999" x2="1623.75" y2="-4.68825" gradientUnits="userSpaceOnUse">
<stop stop-color="#FF5610"/>
<stop offset="0.197917" stop-color="#FF7934"/>
<stop offset="0.367268" stop-color="#FFEA54"/>
<stop offset="0.548409" stop-color="#00B471"/>
<stop offset="0.778566" stop-color="#1568AB"/>
<stop offset="1" stop-color="#B27CDC"/>
</linearGradient>
<linearGradient id="paint6_linear_104_507" x1="231.146" y1="4967.99" x2="1517.11" y2="4413.47" gradientUnits="userSpaceOnUse">
<stop stop-color="#FF5610"/>
<stop offset="0.197917" stop-color="#FF7934"/>
<stop offset="0.395833" stop-color="#FFEA54"/>
<stop offset="0.588542" stop-color="#00B471"/>
<stop offset="0.807292" stop-color="#1568AB"/>
<stop offset="1" stop-color="#B68DD6"/>
</linearGradient>
<linearGradient id="paint7_linear_104_507" x1="252.176" y1="3432.21" x2="1269.64" y2="3282.03" gradientUnits="userSpaceOnUse">
<stop stop-color="#FF5610"/>
<stop offset="0.197917" stop-color="#FF7934"/>
<stop offset="0.39428" stop-color="#FFEA54"/>
<stop offset="0.571246" stop-color="#00B471"/>
<stop offset="0.717457" stop-color="#1568AB"/>
<stop offset="1" stop-color="#B68DD6"/>
</linearGradient>
<clipPath id="clip0_104_507">
<rect width="2800" height="8109" fill="white"/>
</clipPath>
</defs>
</svg>
