<?xml version="1.0" encoding="UTF-8" standalone="no"?>
<svg xmlns="http://www.w3.org/2000/svg" xmlns:xlink="http://www.w3.org/1999/xlink"
    viewBox="0 0 612 162" width="612" height="162" preserveAspectRatio="xMidYMid meet"
    style="width: 100%; height: 100%; transform: translate3d(0px, 0px, 0px); content-visibility: visible;">
    <defs>
        <clipPath id="__lottie_element_20">
            <rect width="612" height="162" x="0" y="0"></rect>
        </clipPath>
        <linearGradient id="__lottie_element_48" spreadMethod="pad" gradientUnits="userSpaceOnUse"
            x1="-165" y1="1" x2="424" y2="56">
            <stop offset="0%" stop-color="rgb(233,88,113)"></stop>
            <stop offset="5%" stop-color="rgb(233,88,113)"></stop>
            <stop offset="10%" stop-color="rgb(245,141,142)"></stop>
            <stop offset="18%" stop-color="rgb(245,141,142)"></stop>
            <stop offset="26%" stop-color="rgb(251,194,158)"></stop>
            <stop offset="39%" stop-color="rgb(253,217,163)"></stop>
            <stop offset="52%" stop-color="rgb(253,217,163)"></stop>
            <stop offset="60%" stop-color="rgb(162,226,175)"></stop>
            <stop offset="68%" stop-color="rgb(65,235,187)"></stop>
            <stop offset="75%" stop-color="rgb(56,203,213)"></stop>
            <stop offset="83%" stop-color="rgb(64,154,251)"></stop>
        </linearGradient>
        <g id="__lottie_element_49">
            <g transform="matrix(1,0,0,1,306,81)" opacity="1" style="display: block;">
                <g opacity="1" transform="matrix(3,0,0,3,0,0)">
                    <path fill="rgb(41,66,83)" fill-opacity="1"
                        d=" M101,-4 C101,-4 93,-4 93,-4 C93,-4 93,4 93,4 C93,4 101,4 101,4 C101,4 101,-4 101,-4z M101,18 C101,18 93,18 93,18 C93,18 93,26 93,26 C93,26 101,26 101,26 C101,26 101,18 101,18z M101,-26 C101,-26 93,-26 93,-26 C93,-26 93,-18 93,-18 C93,-18 101,-18 101,-18 C101,-18 101,-26 101,-26z M-93,-4 C-93,-4 -101,-4 -101,-4 C-101,-4 -101,4 -101,4 C-101,4 -93,4 -93,4 C-93,4 -93,-4 -93,-4z M-93,18 C-93,18 -101,18 -101,18 C-101,18 -101,26 -101,26 C-101,26 -93,26 -93,26 C-93,26 -93,18 -93,18z M-93,-26 C-93,-26 -101,-26 -101,-26 C-101,-26 -101,-18 -101,-18 C-101,-18 -93,-18 -93,-18 C-93,-18 -93,-26 -93,-26z M4,-26 C4,-26 -4,-26 -4,-26 C-4,-26 -4,-18 -4,-18 C-4,-18 4,-18 4,-18 C4,-18 4,-26 4,-26z M4,18 C4,18 -4,18 -4,18 C-4,18 -4,26 -4,26 C-4,26 4,26 4,26 C4,26 4,18 4,18z"></path>
                </g>
            </g>
        </g>
        <filter id="__lottie_element_52" filterUnits="objectBoundingBox" x="0%" y="0%" width="100%"
            height="100%">
            <feComponentTransfer in="SourceGraphic">
                <feFuncA type="table" tableValues="1.0 0.0"></feFuncA>
            </feComponentTransfer>
        </filter>
        <mask id="__lottie_element_49_2" mask-type="alpha">
            <g filter="url(#__lottie_element_52)">
                <rect width="612" height="162" x="0" y="0" fill="#ffffff" opacity="0"></rect>
                <use xlink:href="#__lottie_element_49"></use>
            </g>
        </mask>
    </defs>
    <g clip-path="url(#__lottie_element_20)">
        <g transform="matrix(1,0,0,1,597,81)" opacity="1" style="display: block;">
            <g opacity="1" transform="matrix(3,0,0,3,0,0)">
                <path stroke-linecap="butt" stroke-linejoin="miter" fill-opacity="0"
                    stroke-miterlimit="4" stroke="rgb(64,157,249)" stroke-opacity="1"
                    stroke-width="1"
                    d=" M4,-4 C4,-4 4,4 4,4 C4,4 -4,4 -4,4 C-4,4 -4,-4 -4,-4 C-4,-4 4,-4 4,-4z"></path>
            </g>
        </g>
        <g transform="matrix(1,0,0,1,597,147)" opacity="1" style="display: block;">
            <g opacity="1" transform="matrix(3,0,0,3,0,0)">
                <path stroke-linecap="butt" stroke-linejoin="miter" fill-opacity="0"
                    stroke-miterlimit="4" stroke="rgb(64,157,249)" stroke-opacity="1"
                    stroke-width="1"
                    d=" M4,-4 C4,-4 4,4 4,4 C4,4 -4,4 -4,4 C-4,4 -4,-4 -4,-4 C-4,-4 4,-4 4,-4z"></path>
            </g>
        </g>
        <g transform="matrix(1,0,0,1,597,15)" opacity="1" style="display: block;">
            <g opacity="1" transform="matrix(3,0,0,3,0,0)">
                <path stroke-linecap="butt" stroke-linejoin="miter" fill-opacity="0"
                    stroke-miterlimit="4" stroke="rgb(64,157,249)" stroke-opacity="1"
                    stroke-width="1"
                    d=" M4,-4 C4,-4 4,4 4,4 C4,4 -4,4 -4,4 C-4,4 -4,-4 -4,-4 C-4,-4 4,-4 4,-4z"></path>
            </g>
        </g>
        <g transform="matrix(1,0,0,1,15,81)" opacity="1" style="display: block;">
            <g opacity="1" transform="matrix(3,0,0,3,0,0)">
                <path stroke-linecap="butt" stroke-linejoin="miter" fill-opacity="0"
                    stroke-miterlimit="4" stroke="rgb(233,89,114)" stroke-opacity="1"
                    stroke-width="1"
                    d=" M4,-4 C4,-4 4,4 4,4 C4,4 -4,4 -4,4 C-4,4 -4,-4 -4,-4 C-4,-4 4,-4 4,-4z"></path>
            </g>
        </g>
        <g transform="matrix(1,0,0,1,15,147)" opacity="1" style="display: block;">
            <g opacity="1" transform="matrix(3,0,0,3,0,0)">
                <path stroke-linecap="butt" stroke-linejoin="miter" fill-opacity="0"
                    stroke-miterlimit="4" stroke="rgb(233,89,114)" stroke-opacity="1"
                    stroke-width="1"
                    d=" M4,-4 C4,-4 4,4 4,4 C4,4 -4,4 -4,4 C-4,4 -4,-4 -4,-4 C-4,-4 4,-4 4,-4z"></path>
            </g>
        </g>
        <g transform="matrix(1,0,0,1,15,15)" opacity="1" style="display: block;">
            <g opacity="1" transform="matrix(3,0,0,3,0,0)">
                <path stroke-linecap="butt" stroke-linejoin="miter" fill-opacity="0"
                    stroke-miterlimit="4" stroke="rgb(233,89,114)" stroke-opacity="1"
                    stroke-width="1"
                    d=" M4,-4 C4,-4 4,4 4,4 C4,4 -4,4 -4,4 C-4,4 -4,-4 -4,-4 C-4,-4 4,-4 4,-4z"></path>
            </g>
        </g>
        <g transform="matrix(1,0,0,1,306,15)" opacity="1" style="display: block;">
            <g opacity="1" transform="matrix(3,0,0,3,0,0)">
                <path stroke-linecap="butt" stroke-linejoin="miter" fill-opacity="0"
                    stroke-miterlimit="4" stroke="rgb(254,226,165)" stroke-opacity="1"
                    stroke-width="1"
                    d=" M4,-4 C4,-4 4,4 4,4 C4,4 -4,4 -4,4 C-4,4 -4,-4 -4,-4 C-4,-4 4,-4 4,-4z"></path>
            </g>
        </g>
        <g transform="matrix(1,0,0,1,306,147)" opacity="1" style="display: block;">
            <g opacity="1" transform="matrix(3,0,0,3,0,0)">
                <path stroke-linecap="butt" stroke-linejoin="miter" fill-opacity="0"
                    stroke-miterlimit="4" stroke="rgb(254,226,165)" stroke-opacity="1"
                    stroke-width="1"
                    d=" M4,-4 C4,-4 4,4 4,4 C4,4 -4,4 -4,4 C-4,4 -4,-4 -4,-4 C-4,-4 4,-4 4,-4z"></path>
            </g>
        </g>
        <g mask="url(#__lottie_element_49_2)" style="display: block;">
            <g transform="matrix(1,0,0,1,176.50399780273438,55.52899932861328)" opacity="1">
                <g opacity="1" transform="matrix(1,0,0,1,0,0)">
                    <path stroke="url(#__lottie_element_48)" stroke-linecap="butt"
                        stroke-linejoin="miter" fill-opacity="0" stroke-miterlimit="4"
                        stroke-opacity="1" stroke-dasharray=" 20"
                        stroke-dashoffset="62.11832046508789" stroke-width="5"
                        d=" M420.5669860839844,-40.52899932861328 C420.5669860839844,-40.52899932861328 -161.50399780273438,-40.52899932861328 -161.50399780273438,-40.52899932861328 C-161.50399780273438,-40.52899932861328 -161.50399780273438,91.5009994506836 -161.50399780273438,91.5009994506836 C-161.50399780273438,91.5009994506836 420.5669860839844,91.5009994506836 420.5669860839844,91.5009994506836 C420.5669860839844,91.5009994506836 420.5669860839844,-40.52899932861328 420.5669860839844,-40.52899932861328z"></path>
                </g>
            </g>
        </g>
    </g>
</svg>