<svg width="187" height="28" viewBox="0 0 187 28" fill="none" xmlns="http://www.w3.org/2000/svg">
<path d="M18.4964 23.3686C17.755 23.3686 17.3936 23.0062 17.3927 22.2618L17.3878 13.9588C17.3878 11.9075 16.6416 10.201 15.2339 9.0288C13.8263 7.85661 11.7717 7.23633 9.29154 7.23633H9.2818C5.83522 7.23633 2.87572 8.388 0.483183 10.6552L0.418889 10.7158L3.39105 13.8309L3.45437 13.7674C5.03933 12.1761 6.96135 11.3341 9.01975 11.3331H9.02559C10.1673 11.3331 11.122 11.549 11.7883 11.9573C12.4322 12.3481 12.7732 12.9088 12.7732 13.5662C12.7732 14.8409 11.1269 15.1486 8.6145 15.4739C6.73145 15.7074 4.57855 16.0737 2.89715 17.0241C0.945909 18.126 0 19.7778 0 22.0733C0 23.8189 0.636126 25.3076 1.83629 26.3782C3.03646 27.4488 4.66136 27.9997 6.57461 27.9997H6.58045C9.3948 27.9997 11.9568 26.8275 13.4795 24.868C13.8642 26.8891 15.1355 27.7926 17.5651 27.7926H17.5719C18.1545 27.8031 18.7368 27.7576 19.3108 27.6569L19.3858 27.6412V23.3647L18.4964 23.3686ZM12.6456 19.8745C12.6456 22.1691 10.3709 24.0377 7.57117 24.0397C6.71976 24.0397 6.01251 23.8209 5.5381 23.4067C5.06368 22.9925 4.8143 22.3976 4.8143 21.6728C4.8143 19.6078 6.85419 19.2464 9.01488 18.8635L9.17464 18.8351C10.7947 18.5743 11.8643 18.3799 12.6475 17.9658L12.6456 19.8745Z" fill="white"/>
<path d="M41.771 22.1738L37.7419 7.61525L37.7243 7.55078L33.1546 7.55469L29.1274 22.1152L25.2941 7.62502L25.2765 7.55958L20.1914 7.56251L26.1981 27.5903L26.2166 27.6529L31.6456 27.6499L35.3464 14.3339L39.2606 27.645L44.6886 27.6411L50.5871 7.6553L50.6203 7.54297L45.6676 7.5459L41.771 22.1738Z" fill="white"/>
<path d="M69.0474 10.033C67.2939 8.18288 64.8273 7.20508 61.9136 7.20508H61.9048C58.9356 7.20703 56.4028 8.20242 54.585 10.0916C52.7672 11.9808 51.8242 14.5596 51.8242 17.5907C51.8242 20.6218 52.738 23.1869 54.4603 25.0145C56.2839 26.9457 58.9736 27.9665 62.238 27.9665H62.2477C66.8682 27.9665 69.514 26.0314 70.9177 24.4109L70.9733 24.3474L67.8677 21.37L67.8073 21.4403C66.8877 22.5148 65.177 23.8013 62.2477 23.8033H62.2419C59.2639 23.8033 57.2805 22.129 56.7866 19.2024L71.4487 19.1927H71.5139L71.5324 19.1301C71.6866 18.6286 71.7545 18.1043 71.7331 17.5799C71.7312 14.4941 70.8028 11.885 69.0474 10.033ZM61.9116 11.2306C64.4211 11.2306 66.1629 12.7847 66.7045 15.5003L56.8528 15.5071C57.4052 12.7935 59.2424 11.2306 61.9077 11.2306H61.9116Z" fill="white"/>
<path d="M89.234 17.829C88.027 16.862 86.0952 16.0776 83.1562 15.3596C80.2493 14.6651 79.3161 14.1054 79.3151 13.0582C79.3141 12.0111 80.4977 11.3527 82.4041 11.3507H82.4149C84.5152 11.3507 86.3057 11.9769 88.0504 13.321L88.1225 13.3767L90.741 9.70868L90.667 9.65789C88.2832 8.02073 85.6413 7.19141 82.8123 7.19141H82.8045C80.3545 7.19141 78.2844 7.77164 76.8193 8.86373C75.3541 9.95582 74.5787 11.5012 74.5787 13.3268C74.5787 16.4918 76.7998 18.3819 82.0008 19.6488C85.6384 20.4713 86.3037 21.0691 86.3047 21.9502C86.3047 22.5158 85.9686 22.9613 85.3042 23.2738C84.6808 23.5669 83.7972 23.7232 82.7509 23.7232H82.7432C80.2249 23.7232 78.0039 22.9066 76.3205 21.3612L76.2484 21.2948L73.6289 24.825L73.6883 24.8788C75.8393 26.8324 79.091 27.9499 82.6107 27.9499H82.6214C87.9013 27.9499 91.0508 25.628 91.0479 21.748C91.043 20.0611 90.4692 18.8156 89.234 17.829Z" fill="white"/>
<path d="M103.969 7.17773H103.959C97.7681 7.17773 93.6104 11.3566 93.6152 17.5643C93.6152 20.6501 94.5952 23.2602 96.4403 25.1103C98.2853 26.9604 100.889 27.9353 103.963 27.9353H103.972C106.992 27.9353 109.578 26.9448 111.448 25.0751C113.319 23.2055 114.319 20.5954 114.317 17.5536C114.312 11.2482 110.251 7.17773 103.969 7.17773ZM103.969 23.7769C102.37 23.7769 101.037 23.2055 100.115 22.1251C99.1923 21.0447 98.6945 19.4593 98.6935 17.5604C98.6925 15.6615 99.1806 14.0839 100.109 12.9947C101.037 11.9056 102.364 11.3341 103.965 11.3341C105.563 11.3341 106.896 11.9046 107.818 12.985C108.741 14.0653 109.239 15.6517 109.241 17.5497C109.243 19.4476 108.754 21.0272 107.824 22.1163C106.895 23.2055 105.569 23.772 103.969 23.7769Z" fill="white"/>
<path d="M142.177 7.1543H142.172C139.178 7.1543 136.635 8.49938 135.166 10.8447C134.06 8.50036 131.846 7.16309 129.067 7.16309H129.061C126.384 7.16309 124.034 8.24736 122.574 10.1414L122.321 7.504H117.916L117.93 27.5103V27.5983H122.873L122.865 16.0903C122.865 13.2888 124.786 11.3302 127.541 11.3283C129.83 11.3283 131.092 12.9947 131.094 16.017L131.102 27.5914H136.045L136.037 16.0834C136.037 14.7296 136.503 13.5105 137.351 12.6509C138.198 11.7913 139.389 11.3224 140.714 11.3214C141.863 11.3214 142.752 11.7288 143.356 12.5298C143.96 13.3308 144.267 14.502 144.268 16.0121L144.276 27.5865H149.219L149.21 14.8878C149.214 10.2567 146.385 7.1543 142.177 7.1543Z" fill="white"/>
<path d="M159.039 0H153.996V4.9945H159.039V0Z" fill="white"/>
<path d="M158.986 7.47266L154.043 7.47656L154.057 27.4829V27.5708L159 27.5669L158.986 7.56057V7.47266Z" fill="white"/>
<path d="M175.779 23.4423C175.295 23.6284 174.787 23.7451 174.27 23.7891H174.258C174.19 23.7949 174.12 23.8008 174.05 23.8047C173.909 23.8145 173.769 23.8203 173.626 23.8203C170.157 23.8203 167.442 21.0012 167.442 17.5227C167.442 14.0442 170.157 11.2242 173.626 11.2242C174.445 11.2233 175.256 11.3836 176.014 11.696L177.313 7.75349C176.099 7.33218 174.821 7.1224 173.536 7.13321H173.515C170.723 7.13321 168.152 8.17353 166.276 10.05C164.366 11.9617 163.315 14.6235 163.32 17.5452C163.325 20.4669 164.384 23.1365 166.304 25.0501C168.189 26.9295 170.769 27.964 173.568 27.964H173.587C174.86 27.976 176.126 27.7695 177.33 27.3535L176.011 23.3485C175.934 23.3827 175.857 23.413 175.779 23.4423Z" fill="white"/>
<path d="M186.405 12.2818C186.402 12.2547 186.389 12.2298 186.368 12.2118C186.348 12.1938 186.322 12.1839 186.295 12.1841H184.295L185.709 10.7648C185.728 10.7455 185.74 10.7197 185.741 10.6925C185.743 10.6653 185.734 10.6385 185.717 10.6173C185.644 10.5264 185.567 10.4397 185.485 10.3574C185.403 10.2755 185.317 10.1979 185.227 10.1249C185.205 10.1079 185.179 10.0993 185.151 10.1009C185.124 10.1025 185.098 10.1142 185.079 10.1337L183.664 11.5521V9.54569C183.665 9.51838 183.655 9.49194 183.637 9.47141C183.619 9.45088 183.594 9.43768 183.567 9.43433C183.337 9.40991 183.105 9.40991 182.874 9.43433C182.847 9.43768 182.822 9.45088 182.804 9.47141C182.786 9.49194 182.777 9.51838 182.777 9.54569V11.5511L181.362 10.1328C181.343 10.1132 181.317 10.1016 181.29 10.0999C181.263 10.0983 181.236 10.1069 181.214 10.124C181.124 10.1969 181.038 10.2745 180.956 10.3565C180.874 10.4387 180.797 10.5255 180.724 10.6163C180.707 10.6375 180.699 10.6643 180.7 10.6915C180.701 10.7188 180.713 10.7445 180.732 10.7638L182.147 12.1831H180.147C180.12 12.1829 180.093 12.1928 180.073 12.2108C180.053 12.2289 180.04 12.2538 180.037 12.2808C180.011 12.5119 180.011 12.7452 180.037 12.9763C180.04 13.0033 180.053 13.0282 180.073 13.0463C180.093 13.0643 180.12 13.0742 180.147 13.074H182.147L180.732 14.4923C180.713 14.5119 180.702 14.5377 180.7 14.5651C180.699 14.5924 180.707 14.6194 180.724 14.6408C180.797 14.7316 180.874 14.8184 180.956 14.9006C181.038 14.9828 181.125 15.0604 181.215 15.1331C181.237 15.1501 181.263 15.1587 181.291 15.157C181.318 15.1554 181.343 15.1438 181.362 15.1243L182.777 13.706V15.7114C182.777 15.7385 182.787 15.7647 182.805 15.7851C182.823 15.8054 182.847 15.8184 182.874 15.8218C182.989 15.8343 183.105 15.8405 183.22 15.8403C183.336 15.8405 183.452 15.8343 183.568 15.8218C183.595 15.8184 183.619 15.8054 183.637 15.7851C183.655 15.7647 183.665 15.7385 183.665 15.7114V13.7079L185.08 15.1263C185.099 15.1458 185.125 15.1575 185.152 15.1589C185.18 15.1604 185.207 15.1515 185.228 15.1341C185.408 14.9898 185.571 14.826 185.715 14.6457C185.732 14.6242 185.741 14.5973 185.739 14.57C185.738 14.5426 185.726 14.5168 185.707 14.4972L184.293 13.0789H186.293C186.32 13.079 186.346 13.0692 186.366 13.0511C186.387 13.0331 186.4 13.0082 186.403 12.9812C186.428 12.7488 186.429 12.5143 186.405 12.2818V12.2818Z" fill="#FEA5A5"/>
<path d="M183.314 25.5524C184.987 25.5524 186.343 24.1927 186.343 22.5155C186.343 20.8382 184.987 19.4785 183.314 19.4785C181.641 19.4785 180.285 20.8382 180.285 22.5155C180.285 24.1927 181.641 25.5524 183.314 25.5524Z" fill="#3F56BA"/>
</svg>
