<?xml version="1.0" encoding="utf-8"?>
<!-- Generator: Adobe Illustrator 27.0.0, SVG Export Plug-In . SVG Version: 6.00 Build 0)  -->
<svg version="1.1" id="Layer_1" xmlns="http://www.w3.org/2000/svg" xmlns:xlink="http://www.w3.org/1999/xlink" x="0px" y="0px"
	 viewBox="0 0 1280 1024" style="enable-background:new 0 0 1280 1024;" xml:space="preserve">
<style type="text/css">
	.st0{fill:#FFD984;}
	.st1{fill:#369EF1;}
	.st2{fill:url(#SVGID_1_);}
</style>
<g>
	<path class="st0" d="M399.95,491.99c8.4,0,16.8,0,25.2,0c0.01-0.49,0.04-0.97,0.05-1.47c-9.66,0.1-19.31,0.16-28.97,0.18
		c-0.25,34.77-20.44,59.91-47.33,59.91c-27.7,0-47.34-25.77-47.34-59.9c0-0.36,0.01-0.71,0.02-1.07
		c-9.08-0.24-18.16-0.52-27.23-0.86c-0.46,0-0.92,0-1.39,0c-0.02,0.96-0.06,1.92-0.06,2.9c0,49.28,32.53,80.2,74.72,80.2
		c37.04,0,76.21-24.31,77.54-79.87C416.75,491.99,408.35,491.99,399.95,491.99z"/>
	<path class="st1" d="M350.19,394.96c-42.35,0-75.99,29.47-77.24,79.87c0.46,0,0.92,0,1.39,0c8.05,0,16.1,0,24.16,0
		c-8.05,0-16.1,0-24.16,0c9.08,0.34,18.16,0.62,27.23,0.86c0.35-29.3,14.88-59.48,47.97-59.48c33.5,0,46.7,33.5,46.7,59.9
		c0,0.22-0.01,0.43-0.01,0.64c9.66-0.03,19.31-0.09,28.97-0.18c0.01-0.48,0.03-0.94,0.03-1.42
		C425.24,427.49,394.96,394.96,350.19,394.96z"/>
	<path class="st1" d="M469.68,398.51h-30.27l29.44,77.45c9.23-0.17,18.45-0.37,27.68-0.59L469.68,398.51z"/>
	<path class="st1" d="M557.29,398.51l-26.26,75.97c8.79-0.24,17.58-0.5,26.36-0.77l29.52-75.2H557.29z"/>
	<path class="st0" d="M527.01,503.26c-5.15,14.17-9.66,27.05-13.2,39.94h-0.97c-3.22-12.88-7.41-25.77-12.56-39.94l-3.75-10.74
		c-9.23,0.22-18.45,0.41-27.68,0.59l29.82,78.43h27.05l31.67-80.68c-8.79,0.27-17.58,0.53-26.36,0.77L527.01,503.26z"/>
	<path class="st1" d="M613.65,398.51v73.4c9.45-0.31,18.89-0.63,28.34-0.94v-72.46H613.65z"/>
	<path class="st1" d="M627.18,376.1c11.27,0,18.36-7.73,18.04-17.39c0-9.98-6.76-17.71-17.39-17.71c-10.31,0-17.71,7.73-17.71,17.71
		C610.11,368.37,617.19,376.1,627.18,376.1z"/>
	<path class="st0" d="M613.65,571.54h28.34v-83.42c-9.45,0.31-18.89,0.63-28.34,0.94V571.54z"/>
	<path class="st0" d="M801.1,493.03c0,35.11-20.29,60.55-47.34,60.55c-27.7,0-47.35-25.77-47.35-59.9c0-2.62,0.12-5.25,0.35-7.87
		c-9.57,0.29-19.14,0.58-28.72,0.89c-0.18,2.59-0.29,5.23-0.29,7.95c0,49.28,32.53,80.2,74.72,80.2c35.98,0,73.98-22.92,77.35-75.16
		c-9.73-2.59-19.35-6.12-28.83-10.79C801.06,490.29,801.1,491.67,801.1,493.03z"/>
	<path class="st1" d="M755.05,394.72c-40.91,0-73.7,27.51-77,74.82c9.57-0.31,19.14-0.6,28.72-0.89
		c2.37-26.99,17.11-52.68,47.64-52.68c31.77,0,45.27,30.13,46.58,55.76c9.49,4.67,19.1,8.2,28.83,10.79c0.16-2.48,0.27-5,0.27-7.61
		C830.09,427.25,799.82,394.72,755.05,394.72z"/>
	<path class="st0" d="M978.1,492.62c-0.24,34.77-20.44,59.91-47.33,59.91c-24.34,0-42.46-19.91-46.49-47.91
		c-9.75,0.17-19.45-0.19-29.06-1.28c4.01,43.57,34.93,70.45,74.27,70.45c37.68,0,77.62-25.12,77.62-82.77
		c0-1.06-0.03-2.11-0.06-3.16C997.43,489.28,987.77,490.92,978.1,492.62z"/>
	<path class="st1" d="M884.28,489.08c-0.56-3.86-0.85-7.86-0.85-12c0-29.63,14.49-60.55,47.99-60.55c33.5,0,46.7,33.5,46.7,59.9
		c0,0.21-0.01,0.42-0.01,0.63c9.67-1.69,19.32-3.34,28.93-4.76c-1.31-45.93-31.21-77.03-74.98-77.03c-43.16,0-77.3,30.6-77.3,82.77
		c0,3.34,0.16,6.58,0.45,9.75C864.83,488.89,874.53,489.25,884.28,489.08z"/>
	<g>
		<linearGradient id="SVGID_1_" gradientUnits="userSpaceOnUse" x1="692.3228" y1="649.0031" x2="996.4685" y2="649.0031">
			<stop  offset="0" style="stop-color:#FFD984"/>
			<stop  offset="0.1932" style="stop-color:#FCD886"/>
			<stop  offset="0.3381" style="stop-color:#F2D58B"/>
			<stop  offset="0.4673" style="stop-color:#E2D194"/>
			<stop  offset="0.5873" style="stop-color:#CBCAA0"/>
			<stop  offset="0.7011" style="stop-color:#AEC1B0"/>
			<stop  offset="0.8101" style="stop-color:#8AB7C4"/>
			<stop  offset="0.9133" style="stop-color:#60AADA"/>
			<stop  offset="1" style="stop-color:#369EF1"/>
		</linearGradient>
		<path class="st2" d="M707.96,612.57c6.21,3.26,12.23,6.43,18.14,9.46c3,1.47,5.88,3.02,8.84,4.42c2.94,1.43,5.8,2.88,8.74,4.2
			c11.58,5.45,22.93,10.31,34.21,14.19c11.25,3.93,22.33,7.03,33.3,9.07c10.97,2.03,21.79,3.06,32.6,2.99
			c10.81-0.11,21.64-1.22,32.6-3.46c10.97-2.16,22.04-5.5,33.37-9.47c11.29-4.09,22.72-9.02,34.47-14.42
			c2.98-1.29,5.85-2.8,8.88-4.13c2.99-1.4,5.93-2.91,9.03-4.27c2.99-1.5,6.09-2.93,9.21-4.38c3.11-1.47,6.24-2.97,9.58-4.31
			l0.55-0.22c0.71-0.29,1.52,0.06,1.81,0.77c0.21,0.52,0.08,1.09-0.28,1.47c-9.1,9.67-18.74,18.87-29.04,27.33
			c-10.35,8.4-21.36,16.03-33.02,22.62c-11.7,6.51-24.11,11.85-37.06,15.53c-12.92,3.75-26.38,5.74-39.86,5.93
			c-13.5,0.09-26.97-1.79-39.96-5.3c-12.98-3.53-25.52-8.62-37.25-15.11c-23.48-12.98-44.28-30.33-61.13-51.12
			c-0.48-0.59-0.39-1.46,0.2-1.94c0.44-0.36,1.04-0.4,1.51-0.15L707.96,612.57z"/>
	</g>
</g>
</svg>
